<svg width="33" height="36" viewBox="0 0 33 36" fill="none" xmlns="http://www.w3.org/2000/svg">
<path d="M22.2723 30.9341C19.5489 32.0724 16.3581 31.8669 13.3571 30.36C10.3561 28.8531 7.77362 26.1595 6.14162 22.8342C4.50963 19.5089 3.95246 15.8051 4.58489 12.4859C5.21732 9.16676 6.99119 6.48501 9.54105 4.99315L13.3627 12.0114C12.2222 12.6786 11.4289 13.878 11.146 15.3625C10.8631 16.8471 11.1123 18.5036 11.8423 19.9909C12.5722 21.4781 13.7272 22.6829 15.0694 23.3568C16.4116 24.0308 17.8388 24.1227 19.0568 23.6136L22.2723 30.9341Z" fill="#F4AF61"/>
<path d="M8.64951 7.91029C8.10506 6.82081 8.55535 5.51361 9.65526 4.99057V4.99057C10.7552 4.46753 12.0882 4.92671 12.6326 6.01618L14.2812 9.31504C14.8257 10.4045 14.3754 11.7117 13.2755 12.2348V12.2348C12.1755 12.7578 10.8425 12.2986 10.2981 11.2091L8.64951 7.91029Z" fill="#F4AF61"/>
<path d="M17.3086 26.478C16.7641 25.3886 17.2144 24.0814 18.3143 23.5583V23.5583C19.4142 23.0353 20.7472 23.4945 21.2917 24.5839L23.1885 28.3795C23.7329 29.469 23.2826 30.7762 22.1827 31.2992V31.2992C21.0828 31.8223 19.7498 31.3631 19.2054 30.2736L17.3086 26.478Z" fill="#F4AF61"/>
</svg>
