<svg width="50" height="67" viewBox="0 0 50 67" fill="none" xmlns="http://www.w3.org/2000/svg">
<rect width="50" height="60" rx="2" fill="#F4AF61"/>
<path d="M15.5 63.5L20 60V67L15.5 63.5Z" fill="#50A2C8"/>
<path d="M17 63L14 60H20L17 63Z" fill="#50A2C8"/>
<path d="M18.5 63.5L14 67L14 60L18.5 63.5Z" fill="#50A2C8"/>
<path d="M0 0H4C5.10457 0 6 0.895431 6 2V58C6 59.1046 5.10457 60 4 60H0V0Z" fill="#765836"/>
<path d="M18.5886 20.2891C19.3126 20.2891 19.8542 20.4466 20.2136 20.7617C20.5756 21.0768 20.7566 21.5247 20.7566 22.1055C20.7566 22.3659 20.7188 22.6159 20.6433 22.8555C20.5704 23.0951 20.4493 23.3086 20.28 23.4961C20.1133 23.6836 19.8907 23.832 19.612 23.9414C19.336 24.0508 18.9948 24.1055 18.5886 24.1055H18.155V26H16.612V20.2891H18.5886ZM18.5534 21.5352H18.155V22.8477H18.4597C18.5925 22.8477 18.7162 22.8255 18.8308 22.7812C18.9454 22.7344 19.0365 22.6602 19.1042 22.5586C19.1745 22.4544 19.2097 22.3164 19.2097 22.1445C19.2097 21.9648 19.1563 21.819 19.0495 21.707C18.9428 21.5924 18.7774 21.5352 18.5534 21.5352ZM27.4905 23.1367C27.4905 23.5768 27.4371 23.9779 27.3303 24.3398C27.2261 24.6992 27.0621 25.0091 26.8381 25.2695C26.6142 25.5299 26.3264 25.7305 25.9748 25.8711C25.6233 26.0091 25.2027 26.0781 24.7131 26.0781C24.234 26.0781 23.8186 26.0091 23.467 25.8711C23.1181 25.7305 22.8303 25.5312 22.6037 25.2734C22.3772 25.013 22.2092 24.7018 22.0998 24.3398C21.9905 23.9779 21.9358 23.5742 21.9358 23.1289C21.9358 22.5352 22.0334 22.0195 22.2287 21.582C22.4267 21.1419 22.7314 20.8021 23.1428 20.5625C23.5543 20.3203 24.0803 20.1992 24.7209 20.1992C25.372 20.1992 25.9006 20.3203 26.3069 20.5625C26.7157 20.8047 27.0152 21.1458 27.2053 21.5859C27.3954 22.026 27.4905 22.543 27.4905 23.1367ZM23.5608 23.1367C23.5608 23.4805 23.5998 23.776 23.678 24.0234C23.7561 24.2708 23.8798 24.4609 24.0491 24.5938C24.2183 24.7266 24.4397 24.793 24.7131 24.793C24.997 24.793 25.2222 24.7266 25.3889 24.5938C25.5582 24.4609 25.6793 24.2708 25.7522 24.0234C25.8277 23.776 25.8655 23.4805 25.8655 23.1367C25.8655 22.6211 25.7795 22.2135 25.6077 21.9141C25.4358 21.6146 25.1402 21.4648 24.7209 21.4648C24.4423 21.4648 24.217 21.5326 24.0452 21.668C23.8759 21.8034 23.7522 21.9961 23.6741 22.2461C23.5985 22.4961 23.5608 22.793 23.5608 23.1367ZM30.8728 20.2891C31.391 20.2891 31.822 20.3529 32.1658 20.4805C32.5095 20.6055 32.7673 20.793 32.9392 21.043C33.1137 21.293 33.2009 21.6042 33.2009 21.9766C33.2009 22.2083 33.1619 22.4193 33.0837 22.6094C33.0056 22.7995 32.8936 22.9701 32.7478 23.1211C32.6046 23.2695 32.4327 23.3997 32.2322 23.5117L33.8962 26H32.1462L30.9353 23.9219H30.5447V26H29.0017V20.2891H30.8728ZM30.8494 21.457H30.5447V22.7617H30.8337C31.0707 22.7617 31.2647 22.7096 31.4158 22.6055C31.5668 22.5013 31.6423 22.3151 31.6423 22.0469C31.6423 21.862 31.5798 21.7174 31.4548 21.6133C31.3298 21.5091 31.128 21.457 30.8494 21.457ZM37.4153 26H35.8723V21.5508H34.4778V20.2891H38.8059V21.5508H37.4153V26ZM16.4228 37H14.9033V31.2891H18.2783V32.5273H16.4228V33.6172H18.1337V34.8555H16.4228V37ZM25.0395 34.1367C25.0395 34.5768 24.9861 34.9779 24.8794 35.3398C24.7752 35.6992 24.6111 36.0091 24.3872 36.2695C24.1632 36.5299 23.8755 36.7305 23.5239 36.8711C23.1723 37.0091 22.7518 37.0781 22.2622 37.0781C21.783 37.0781 21.3677 37.0091 21.0161 36.8711C20.6671 36.7305 20.3794 36.5312 20.1528 36.2734C19.9262 36.013 19.7583 35.7018 19.6489 35.3398C19.5395 34.9779 19.4848 34.5742 19.4848 34.1289C19.4848 33.5352 19.5825 33.0195 19.7778 32.582C19.9757 32.1419 20.2804 31.8021 20.6919 31.5625C21.1033 31.3203 21.6294 31.1992 22.27 31.1992C22.921 31.1992 23.4497 31.3203 23.8559 31.5625C24.2648 31.8047 24.5643 32.1458 24.7544 32.5859C24.9445 33.026 25.0395 33.543 25.0395 34.1367ZM21.1098 34.1367C21.1098 34.4805 21.1489 34.776 21.227 35.0234C21.3052 35.2708 21.4289 35.4609 21.5981 35.5938C21.7674 35.7266 21.9887 35.793 22.2622 35.793C22.546 35.793 22.7713 35.7266 22.938 35.5938C23.1072 35.4609 23.2283 35.2708 23.3012 35.0234C23.3768 34.776 23.4145 34.4805 23.4145 34.1367C23.4145 33.6211 23.3286 33.2135 23.1567 32.9141C22.9848 32.6146 22.6893 32.4648 22.27 32.4648C21.9914 32.4648 21.7661 32.5326 21.5942 32.668C21.4249 32.8034 21.3012 32.9961 21.2231 33.2461C21.1476 33.4961 21.1098 33.793 21.1098 34.1367ZM26.5508 37V31.2891H28.0938V35.7539H30.293V37H26.5508ZM31.687 37V31.2891H33.2378V37H31.687ZM40.2998 34.1367C40.2998 34.5768 40.2465 34.9779 40.1397 35.3398C40.0355 35.6992 39.8715 36.0091 39.6475 36.2695C39.4235 36.5299 39.1358 36.7305 38.7842 36.8711C38.4327 37.0091 38.0121 37.0781 37.5225 37.0781C37.0433 37.0781 36.628 37.0091 36.2764 36.8711C35.9274 36.7305 35.6397 36.5312 35.4131 36.2734C35.1866 36.013 35.0186 35.7018 34.9092 35.3398C34.7998 34.9779 34.7452 34.5742 34.7452 34.1289C34.7452 33.5352 34.8428 33.0195 35.0381 32.582C35.236 32.1419 35.5407 31.8021 35.9522 31.5625C36.3636 31.3203 36.8897 31.1992 37.5303 31.1992C38.1814 31.1992 38.71 31.3203 39.1162 31.5625C39.5251 31.8047 39.8246 32.1458 40.0147 32.5859C40.2048 33.026 40.2998 33.543 40.2998 34.1367ZM36.3702 34.1367C36.3702 34.4805 36.4092 34.776 36.4873 35.0234C36.5655 35.2708 36.6892 35.4609 36.8584 35.5938C37.0277 35.7266 37.2491 35.793 37.5225 35.793C37.8064 35.793 38.0316 35.7266 38.1983 35.5938C38.3676 35.4609 38.4886 35.2708 38.5616 35.0234C38.6371 34.776 38.6748 34.4805 38.6748 34.1367C38.6748 33.6211 38.5889 33.2135 38.417 32.9141C38.2452 32.6146 37.9496 32.4648 37.5303 32.4648C37.2517 32.4648 37.0264 32.5326 36.8545 32.668C36.6853 32.8034 36.5616 32.9961 36.4834 33.2461C36.4079 33.4961 36.3702 33.793 36.3702 34.1367Z" fill="#5D0C07"/>
</svg>
