<svg width="20" height="54" viewBox="0 0 20 54" fill="none" xmlns="http://www.w3.org/2000/svg">
<rect x="4.99988" y="19" width="10" height="35" fill="#F4AF61"/>
<path d="M19 12.5C19 14.1415 18.7672 15.767 18.3149 17.2835C17.8626 18.8001 17.1997 20.1781 16.364 21.3388C15.5282 22.4996 14.5361 23.4203 13.4442 24.0485C12.3522 24.6767 11.1819 25 10 25C8.8181 25 7.64778 24.6767 6.55585 24.0485C5.46392 23.4203 4.47177 22.4996 3.63604 21.3388C2.80031 20.1781 2.13738 18.8001 1.68508 17.2835C1.23279 15.767 1 14.1415 1 12.5L10 12.5H19Z" fill="#F4AF61"/>
<path d="M6.5 25C6.5 25.5523 6.04651 26.0106 5.50914 25.8831C4.9965 25.7615 4.49398 25.5456 4.01256 25.2388C3.22394 24.7362 2.50739 23.9997 1.90381 23.0711C1.30023 22.1425 0.821439 21.0401 0.494783 19.8268C0.168127 18.6136 -3.73117e-08 17.3132 0 16C3.73117e-08 14.6868 0.168128 13.3864 0.494783 12.1732C0.821439 10.9599 1.30023 9.85752 1.90381 8.92893C2.50739 8.00035 3.22394 7.26375 4.01256 6.7612C4.49398 6.45442 4.9965 6.23852 5.50915 6.11687C6.04651 5.98936 6.5 6.44772 6.5 7L6.5 16V25Z" fill="#F4AF61"/>
<path d="M13.5 7C13.5 6.44772 13.9535 5.98936 14.4909 6.11687C15.0035 6.23852 15.506 6.45442 15.9874 6.7612C16.7761 7.26375 17.4926 8.00035 18.0962 8.92893C18.6998 9.85752 19.1786 10.9599 19.5052 12.1732C19.8319 13.3864 20 14.6868 20 16C20 17.3132 19.8319 18.6136 19.5052 19.8268C19.1786 21.0401 18.6998 22.1425 18.0962 23.0711C17.4926 23.9997 16.7761 24.7362 15.9874 25.2388C15.506 25.5456 15.0035 25.7615 14.4909 25.8831C13.9535 26.0106 13.5 25.5523 13.5 25L13.5 16L13.5 7Z" fill="#F4AF61"/>
<rect x="4.99988" y="19" width="10" height="35" fill="#F4AF61"/>
</svg>
